<svg width="24" height="24" viewBox="0 0 24 24" fill="none" xmlns="http://www.w3.org/2000/svg">
<g id="angle-small-down 1">
<path id="Vector" d="M8.20998 5.29018C8.11625 5.38315 8.04186 5.49375 7.99109 5.61561C7.94032 5.73747 7.91418 5.86817 7.91418 6.00018C7.91418 6.1322 7.94032 6.2629 7.99109 6.38476C8.04186 6.50662 8.11625 6.61722 8.20998 6.71018L12.79 11.2902C12.8837 11.3831 12.9581 11.4937 13.0089 11.6156C13.0596 11.7375 13.0858 11.8682 13.0858 12.0002C13.0858 12.1322 13.0596 12.2629 13.0089 12.3848C12.9581 12.5066 12.8837 12.6172 12.79 12.7102L8.20998 17.2902C8.11625 17.3831 8.04186 17.4937 7.99109 17.6156C7.94032 17.7375 7.91418 17.8682 7.91418 18.0002C7.91418 18.1322 7.94032 18.2629 7.99109 18.3848C8.04186 18.5066 8.11625 18.6172 8.20998 18.7102C8.39735 18.8964 8.6508 19.001 8.91498 19.001C9.17917 19.001 9.43262 18.8964 9.61998 18.7102L14.21 14.1202C14.7718 13.5577 15.0873 12.7952 15.0873 12.0002C15.0873 11.2052 14.7718 10.4427 14.21 9.88018L9.61998 5.29018C9.43262 5.10393 9.17917 4.99939 8.91498 4.99939C8.6508 4.99939 8.39734 5.10393 8.20998 5.29018Z" fill="white"/>
</g>
</svg>
