<svg width="40" height="40" viewBox="0 0 40 40" fill="none" xmlns="http://www.w3.org/2000/svg">
<rect x="0.5" y="0.5" width="39" height="39" rx="7.5" fill="#FFEFDC"/>
<rect x="0.5" y="0.5" width="39" height="39" rx="7.5" stroke="#F6921E"/>
<g clip-path="url(#clip0_2853_363462)">
<path d="M9 12.7498H11.736C11.9506 13.5395 12.4192 14.2367 13.0693 14.7337C13.7195 15.2307 14.5151 15.5 15.3335 15.5C16.1519 15.5 16.9475 15.2307 17.5977 14.7337C18.2478 14.2367 18.7164 13.5395 18.931 12.7498H31C31.2652 12.7498 31.5196 12.6444 31.7071 12.4569C31.8946 12.2693 32 12.015 32 11.7498C32 11.4846 31.8946 11.2302 31.7071 11.0427C31.5196 10.8551 31.2652 10.7498 31 10.7498H18.931C18.7164 9.96004 18.2478 9.26288 17.5977 8.76584C16.9475 8.2688 16.1519 7.99951 15.3335 7.99951C14.5151 7.99951 13.7195 8.2688 13.0693 8.76584C12.4192 9.26288 11.9506 9.96004 11.736 10.7498H9C8.73478 10.7498 8.48043 10.8551 8.29289 11.0427C8.10536 11.2302 8 11.4846 8 11.7498C8 12.015 8.10536 12.2693 8.29289 12.4569C8.48043 12.6444 8.73478 12.7498 9 12.7498ZM15.333 9.99977C15.6791 9.99977 16.0175 10.1024 16.3052 10.2947C16.593 10.487 16.8173 10.7603 16.9498 11.0801C17.0822 11.3998 17.1169 11.7517 17.0494 12.0912C16.9819 12.4306 16.8152 12.7425 16.5704 12.9872C16.3257 13.2319 16.0139 13.3986 15.6744 13.4661C15.3349 13.5337 14.9831 13.499 14.6633 13.3666C14.3435 13.2341 14.0702 13.0098 13.8779 12.722C13.6856 12.4342 13.583 12.0959 13.583 11.7498C13.5835 11.2858 13.7681 10.841 14.0961 10.5129C14.4242 10.1848 14.869 10.0003 15.333 9.99977Z" fill="#F6921E"/>
<path d="M31 18.9998H28.264C28.0497 18.2099 27.5814 17.5124 26.9313 17.0152C26.2812 16.518 25.4855 16.2485 24.667 16.2485C23.8485 16.2485 23.0528 16.518 22.4027 17.0152C21.7526 17.5124 21.2843 18.2099 21.07 18.9998H9C8.73478 18.9998 8.48043 19.1051 8.29289 19.2927C8.10536 19.4802 8 19.7346 8 19.9998C8 20.265 8.10536 20.5193 8.29289 20.7069C8.48043 20.8944 8.73478 20.9998 9 20.9998H21.07C21.2843 21.7897 21.7526 22.4871 22.4027 22.9843C23.0528 23.4816 23.8485 23.751 24.667 23.751C25.4855 23.751 26.2812 23.4816 26.9313 22.9843C27.5814 22.4871 28.0497 21.7897 28.264 20.9998H31C31.2652 20.9998 31.5196 20.8944 31.7071 20.7069C31.8946 20.5193 32 20.265 32 19.9998C32 19.7346 31.8946 19.4802 31.7071 19.2927C31.5196 19.1051 31.2652 18.9998 31 18.9998ZM24.667 21.7498C24.3209 21.7498 23.9825 21.6471 23.6948 21.4548C23.407 21.2625 23.1827 20.9892 23.0502 20.6695C22.9178 20.3497 22.8831 19.9978 22.9506 19.6584C23.0181 19.3189 23.1848 19.0071 23.4296 18.7623C23.6743 18.5176 23.9861 18.3509 24.3256 18.2834C24.6651 18.2159 25.0169 18.2505 25.3367 18.383C25.6565 18.5154 25.9298 18.7397 26.1221 19.0275C26.3144 19.3153 26.417 19.6537 26.417 19.9998C26.4165 20.4637 26.2319 20.9085 25.9039 21.2366C25.5758 21.5647 25.131 21.7492 24.667 21.7498Z" fill="#F6921E"/>
<path d="M31 27.2498H18.931C18.7164 26.46 18.2478 25.7629 17.5977 25.2658C16.9475 24.7688 16.1519 24.4995 15.3335 24.4995C14.5151 24.4995 13.7195 24.7688 13.0693 25.2658C12.4192 25.7629 11.9506 26.46 11.736 27.2498H9C8.73478 27.2498 8.48043 27.3551 8.29289 27.5427C8.10536 27.7302 8 27.9846 8 28.2498C8 28.515 8.10536 28.7693 8.29289 28.9569C8.48043 29.1444 8.73478 29.2498 9 29.2498H11.736C11.9506 30.0395 12.4192 30.7367 13.0693 31.2337C13.7195 31.7307 14.5151 32 15.3335 32C16.1519 32 16.9475 31.7307 17.5977 31.2337C18.2478 30.7367 18.7164 30.0395 18.931 29.2498H31C31.2652 29.2498 31.5196 29.1444 31.7071 28.9569C31.8946 28.7693 32 28.515 32 28.2498C32 27.9846 31.8946 27.7302 31.7071 27.5427C31.5196 27.3551 31.2652 27.2498 31 27.2498ZM15.333 29.9998C14.9869 29.9998 14.6485 29.8971 14.3608 29.7048C14.073 29.5126 13.8487 29.2392 13.7162 28.9195C13.5838 28.5997 13.5491 28.2478 13.6166 27.9084C13.6841 27.5689 13.8508 27.2571 14.0956 27.0123C14.3403 26.7676 14.6521 26.6009 14.9916 26.5334C15.3311 26.4659 15.6829 26.5005 16.0027 26.633C16.3225 26.7654 16.5958 26.9897 16.7881 27.2775C16.9804 27.5653 17.083 27.9037 17.083 28.2498C17.0822 28.7137 16.8976 29.1583 16.5696 29.4863C16.2415 29.8143 15.7969 29.999 15.333 29.9998Z" fill="#F6921E"/>
</g>
<defs>
<clipPath id="clip0_2853_363462">
<rect width="24" height="24" fill="white" transform="translate(8 8)"/>
</clipPath>
</defs>
</svg>
