<svg width="40" height="40" viewBox="0 0 40 40" fill="none" xmlns="http://www.w3.org/2000/svg">
    <g clip-path="url(#clip0_2804_360802)">
        <path
            d="M9 12.75H11.736C11.9506 13.5397 12.4192 14.2369 13.0693 14.7339C13.7195 15.231 14.5151 15.5003 15.3335 15.5003C16.1519 15.5003 16.9475 15.231 17.5977 14.7339C18.2478 14.2369 18.7164 13.5397 18.931 12.75H31C31.2652 12.75 31.5196 12.6447 31.7071 12.4571C31.8946 12.2696 32 12.0152 32 11.75C32 11.4848 31.8946 11.2304 31.7071 11.0429C31.5196 10.8554 31.2652 10.75 31 10.75H18.931C18.7164 9.96028 18.2478 9.26312 17.5977 8.76608C16.9475 8.26905 16.1519 7.99976 15.3335 7.99976C14.5151 7.99976 13.7195 8.26905 13.0693 8.76608C12.4192 9.26312 11.9506 9.96028 11.736 10.75H9C8.73478 10.75 8.48043 10.8554 8.29289 11.0429C8.10536 11.2304 8 11.4848 8 11.75C8 12.0152 8.10536 12.2696 8.29289 12.4571C8.48043 12.6447 8.73478 12.75 9 12.75ZM15.333 10C15.6791 10 16.0175 10.1027 16.3052 10.2949C16.593 10.4872 16.8173 10.7605 16.9498 11.0803C17.0822 11.4001 17.1169 11.752 17.0494 12.0914C16.9819 12.4309 16.8152 12.7427 16.5704 12.9875C16.3257 13.2322 16.0139 13.3989 15.6744 13.4664C15.3349 13.5339 14.9831 13.4993 14.6633 13.3668C14.3435 13.2344 14.0702 13.01 13.8779 12.7223C13.6856 12.4345 13.583 12.0961 13.583 11.75C13.5835 11.286 13.7681 10.8412 14.0961 10.5132C14.4242 10.1851 14.869 10.0005 15.333 10Z"
            fill="#868E96" />
        <path
            d="M31 19H28.264C28.0497 18.2101 27.5814 17.5127 26.9313 17.0154C26.2812 16.5182 25.4855 16.2488 24.667 16.2488C23.8485 16.2488 23.0528 16.5182 22.4027 17.0154C21.7526 17.5127 21.2843 18.2101 21.07 19H9C8.73478 19 8.48043 19.1054 8.29289 19.2929C8.10536 19.4804 8 19.7348 8 20C8 20.2652 8.10536 20.5196 8.29289 20.7071C8.48043 20.8947 8.73478 21 9 21H21.07C21.2843 21.7899 21.7526 22.4873 22.4027 22.9846C23.0528 23.4818 23.8485 23.7512 24.667 23.7512C25.4855 23.7512 26.2812 23.4818 26.9313 22.9846C27.5814 22.4873 28.0497 21.7899 28.264 21H31C31.2652 21 31.5196 20.8947 31.7071 20.7071C31.8946 20.5196 32 20.2652 32 20C32 19.7348 31.8946 19.4804 31.7071 19.2929C31.5196 19.1054 31.2652 19 31 19ZM24.667 21.75C24.3209 21.75 23.9825 21.6474 23.6948 21.4551C23.407 21.2628 23.1827 20.9895 23.0502 20.6697C22.9178 20.3499 22.8831 19.9981 22.9506 19.6586C23.0181 19.3191 23.1848 19.0073 23.4296 18.7626C23.6743 18.5178 23.9861 18.3512 24.3256 18.2836C24.6651 18.2161 25.0169 18.2508 25.3367 18.3832C25.6565 18.5157 25.9298 18.74 26.1221 19.0278C26.3144 19.3156 26.417 19.6539 26.417 20C26.4165 20.464 26.2319 20.9088 25.9039 21.2369C25.5758 21.5649 25.131 21.7495 24.667 21.75Z"
            fill="#868E96" />
        <path
            d="M31 27.25H18.931C18.7164 26.4603 18.2478 25.7631 17.5977 25.2661C16.9475 24.769 16.1519 24.4998 15.3335 24.4998C14.5151 24.4998 13.7195 24.769 13.0693 25.2661C12.4192 25.7631 11.9506 26.4603 11.736 27.25H9C8.73478 27.25 8.48043 27.3554 8.29289 27.5429C8.10536 27.7304 8 27.9848 8 28.25C8 28.5152 8.10536 28.7696 8.29289 28.9571C8.48043 29.1447 8.73478 29.25 9 29.25H11.736C11.9506 30.0397 12.4192 30.7369 13.0693 31.2339C13.7195 31.731 14.5151 32.0003 15.3335 32.0003C16.1519 32.0003 16.9475 31.731 17.5977 31.2339C18.2478 30.7369 18.7164 30.0397 18.931 29.25H31C31.2652 29.25 31.5196 29.1447 31.7071 28.9571C31.8946 28.7696 32 28.5152 32 28.25C32 27.9848 31.8946 27.7304 31.7071 27.5429C31.5196 27.3554 31.2652 27.25 31 27.25ZM15.333 30C14.9869 30 14.6485 29.8974 14.3608 29.7051C14.073 29.5128 13.8487 29.2395 13.7162 28.9197C13.5838 28.5999 13.5491 28.2481 13.6166 27.9086C13.6841 27.5691 13.8508 27.2573 14.0956 27.0126C14.3403 26.7678 14.6521 26.6012 14.9916 26.5336C15.3311 26.4661 15.6829 26.5008 16.0027 26.6332C16.3225 26.7657 16.5958 26.99 16.7881 27.2778C16.9804 27.5656 17.083 27.9039 17.083 28.25C17.0822 28.7139 16.8976 29.1586 16.5696 29.4866C16.2415 29.8146 15.7969 29.9992 15.333 30Z"
            fill="#868E96" />
    </g>
    <rect x="0.5" y="0.5" width="39" height="39" rx="7.5" stroke="#E9ECEF" />
    <defs>
        <clipPath id="clip0_2804_360802">
            <rect width="24" height="24" fill="white" transform="translate(8 8)" />
        </clipPath>
    </defs>
</svg>