<svg width="32" height="32" viewBox="0 0 32 32" fill="none" xmlns="http://www.w3.org/2000/svg">
    <g clip-path="url(#clip0_2804_362291)">
        <path
            d="M21.8333 6H10.1667C9.062 6.00132 8.00296 6.44073 7.22185 7.22185C6.44073 8.00296 6.00132 9.062 6 10.1667L6 21.8333C6.00132 22.938 6.44073 23.997 7.22185 24.7782C8.00296 25.5593 9.062 25.9987 10.1667 26H21.8333C22.938 25.9987 23.997 25.5593 24.7782 24.7782C25.5593 23.997 25.9987 22.938 26 21.8333V10.1667C25.9987 9.062 25.5593 8.00296 24.7782 7.22185C23.997 6.44073 22.938 6.00132 21.8333 6ZM10.1667 7.66667H21.8333C22.4964 7.66667 23.1323 7.93006 23.6011 8.3989C24.0699 8.86774 24.3333 9.50363 24.3333 10.1667V21.8333C24.3319 22.2046 24.2464 22.5707 24.0833 22.9042L16.4475 15.2683C16.0606 14.8813 15.6012 14.5743 15.0956 14.3648C14.59 14.1554 14.0481 14.0476 13.5008 14.0476C12.9536 14.0476 12.4117 14.1554 11.9061 14.3648C11.4005 14.5743 10.9411 14.8813 10.5542 15.2683L7.66667 18.155V10.1667C7.66667 9.50363 7.93006 8.86774 8.3989 8.3989C8.86774 7.93006 9.50363 7.66667 10.1667 7.66667ZM10.1667 24.3333C9.50363 24.3333 8.86774 24.0699 8.3989 23.6011C7.93006 23.1323 7.66667 22.4964 7.66667 21.8333V20.5117L11.7317 16.4467C11.9638 16.2144 12.2395 16.0301 12.5429 15.9043C12.8463 15.7786 13.1716 15.7139 13.5 15.7139C13.8284 15.7139 14.1537 15.7786 14.4571 15.9043C14.7605 16.0301 15.0362 16.2144 15.2683 16.4467L22.9042 24.0833C22.5707 24.2464 22.2046 24.3319 21.8333 24.3333H10.1667Z"
            fill="#E9ECEF" />
        <path
            d="M19.3337 14.75C19.9105 14.75 20.4744 14.5789 20.9541 14.2584C21.4337 13.938 21.8076 13.4824 22.0283 12.9495C22.2491 12.4165 22.3068 11.8301 22.1943 11.2643C22.0817 10.6985 21.804 10.1788 21.3961 9.77093C20.9882 9.36303 20.4685 9.08524 19.9027 8.9727C19.3369 8.86016 18.7505 8.91792 18.2175 9.13868C17.6845 9.35943 17.229 9.73327 16.9085 10.2129C16.5881 10.6926 16.417 11.2565 16.417 11.8333C16.417 12.6069 16.7243 13.3487 17.2713 13.8957C17.8182 14.4427 18.5601 14.75 19.3337 14.75ZM19.3337 10.5833C19.5809 10.5833 19.8226 10.6566 20.0281 10.794C20.2337 10.9313 20.3939 11.1266 20.4885 11.355C20.5831 11.5834 20.6079 11.8347 20.5596 12.0772C20.5114 12.3197 20.3924 12.5424 20.2175 12.7172C20.0427 12.892 19.82 13.0111 19.5775 13.0593C19.335 13.1075 19.0837 13.0828 18.8553 12.9882C18.6269 12.8936 18.4317 12.7333 18.2943 12.5278C18.157 12.3222 18.0837 12.0806 18.0837 11.8333C18.0837 11.5018 18.2154 11.1839 18.4498 10.9494C18.6842 10.715 19.0021 10.5833 19.3337 10.5833Z"
            fill="#E9ECEF" />
    </g>
    <defs>
        <clipPath id="clip0_2804_362291">
            <rect width="20" height="20" fill="white" transform="translate(6 6)" />
        </clipPath>
    </defs>
</svg>