<svg width="20" height="20" viewBox="0 0 20 20" fill="none" xmlns="http://www.w3.org/2000/svg">
<g id="menu-dots-vertical 1" clip-path="url(#clip0_760_4458)">
<path id="Vector" d="M9.99996 4.16667C11.1506 4.16667 12.0833 3.23393 12.0833 2.08333C12.0833 0.93274 11.1506 0 9.99996 0C8.84937 0 7.91663 0.93274 7.91663 2.08333C7.91663 3.23393 8.84937 4.16667 9.99996 4.16667Z" fill="#868E96"/>
<path id="Vector_2" d="M9.99996 12.0827C11.1506 12.0827 12.0833 11.1499 12.0833 9.99935C12.0833 8.84876 11.1506 7.91602 9.99996 7.91602C8.84937 7.91602 7.91663 8.84876 7.91663 9.99935C7.91663 11.1499 8.84937 12.0827 9.99996 12.0827Z" fill="#868E96"/>
<path id="Vector_3" d="M9.99996 20.0007C11.1506 20.0007 12.0833 19.0679 12.0833 17.9173C12.0833 16.7667 11.1506 15.834 9.99996 15.834C8.84937 15.834 7.91663 16.7667 7.91663 17.9173C7.91663 19.0679 8.84937 20.0007 9.99996 20.0007Z" fill="#868E96"/>
</g>
<defs>
<clipPath id="clip0_760_4458">
<rect width="20" height="20" fill="white"/>
</clipPath>
</defs>
</svg>
