<svg width="36" height="36" viewBox="0 0 36 36" fill="none" xmlns="http://www.w3.org/2000/svg">
    <g clip-path="url(#clip0_2804_367137)">
        <path
            d="M30 22.0001V27.0001C30 27.7958 29.6839 28.5588 29.1213 29.1215C28.5587 29.6841 27.7956 30.0001 27 30.0001H22C20.5971 29.9987 19.2192 29.6284 18.0047 28.9263C16.7901 28.2242 15.7815 27.2151 15.08 26.0001C15.8339 25.9947 16.5852 25.9116 17.322 25.7521C17.8832 26.4538 18.595 27.0202 19.4048 27.4093C20.2146 27.7984 21.1016 28.0004 22 28.0001H27C27.2652 28.0001 27.5196 27.8948 27.7071 27.7072C27.8946 27.5197 28 27.2654 28 27.0001V22.0001C27.9998 21.1014 27.7972 20.2142 27.4074 19.4044C27.0175 18.5946 26.4504 17.8829 25.748 17.3221C25.9088 16.5855 25.9933 15.8341 26 15.0801C27.215 15.7816 28.2241 16.7902 28.9262 18.0048C29.6282 19.2194 29.9986 20.5972 30 22.0001ZM23.977 15.6511C24.0705 14.3628 23.8856 13.0694 23.4348 11.8588C22.9841 10.6483 22.278 9.54896 21.3646 8.63555C20.4512 7.72215 19.3518 7.01607 18.1413 6.56529C16.9308 6.11451 15.6374 5.92961 14.349 6.02313C12.0659 6.28387 9.95693 7.37031 8.41918 9.07788C6.88143 10.7854 6.02103 12.9963 6 15.2941V20.3341C6 22.8661 7.507 24.0001 9 24.0001H14.7C16.9988 23.9804 19.211 23.1205 20.9198 21.5827C22.6286 20.0448 23.7159 17.9352 23.977 15.6511ZM19.95 10.0511C20.6599 10.7626 21.2088 11.6183 21.5593 12.5603C21.9099 13.5023 22.054 14.5086 21.982 15.5111C21.7686 17.2948 20.9105 18.939 19.5693 20.1341C18.2282 21.3292 16.4964 21.9929 14.7 22.0001H9C8.072 22.0001 8 20.7251 8 20.3341V15.2941C8.00834 13.4985 8.67265 11.7678 9.86792 10.4278C11.0632 9.08778 12.707 8.2308 14.49 8.01813C14.656 8.00613 14.822 8.00013 14.988 8.00013C15.9093 7.99927 16.8217 8.17997 17.6731 8.53189C18.5245 8.88381 19.2982 9.40006 19.95 10.0511Z"
            fill="#CED4DA" />
    </g>
    <defs>
        <clipPath id="clip0_2804_367137">
            <rect width="24" height="24" fill="white" transform="translate(6 6)" />
        </clipPath>
    </defs>
</svg>