<svg width="36" height="36" viewBox="0 0 36 36" fill="none" xmlns="http://www.w3.org/2000/svg">
<g clip-path="url(#clip0_2804_367125)">
<path d="M29.9996 17.9829C29.9974 17.1689 29.7466 16.3749 29.2807 15.7074C28.8147 15.0399 28.156 14.5306 27.3926 14.2479L27.3546 14.1569C26.3625 11.7304 24.4633 9.78632 22.0606 8.73794L21.7316 8.59394C21.4483 7.83286 20.9391 7.1766 20.2722 6.71321C19.6053 6.24982 18.8126 6.00146 18.0006 6.00146C17.1885 6.00146 16.3958 6.24982 15.7289 6.71321C15.062 7.1766 14.5528 7.83286 14.2696 8.59394L13.8516 8.78194C11.4701 9.86359 9.59577 11.8196 8.61657 14.2449C7.85191 14.5235 7.19104 15.0298 6.72302 15.6956C6.255 16.3614 6.00232 17.1547 5.99906 17.9685C5.99579 18.7823 6.24208 19.5776 6.70473 20.2471C7.16739 20.9166 7.82417 21.4282 8.58657 21.7129L8.71457 22.0129C9.71792 24.3418 11.5606 26.2081 13.8766 27.2409L14.2696 27.4169C14.5536 28.1769 15.063 28.832 15.7296 29.2945C16.3962 29.757 17.1882 30.0049 17.9996 30.0049C18.8109 30.0049 19.6029 29.757 20.2695 29.2945C20.9361 28.832 21.4455 28.1769 21.7296 27.4169L22.0966 27.2539C24.5191 26.1707 26.4238 24.1854 27.4056 21.7199C28.1664 21.4343 28.8221 20.9237 29.2855 20.2561C29.7489 19.5885 29.998 18.7956 29.9996 17.9829ZM17.9996 7.99994C18.3951 7.99994 18.7818 8.11724 19.1107 8.337C19.4396 8.55676 19.696 8.86912 19.8473 9.23457C19.9987 9.60003 20.0383 10.0022 19.9611 10.3901C19.884 10.7781 19.6935 11.1344 19.4138 11.4142C19.1341 11.6939 18.7777 11.8843 18.3897 11.9615C18.0018 12.0387 17.5997 11.9991 17.2342 11.8477C16.8687 11.6963 16.5564 11.44 16.3366 11.1111C16.1169 10.7822 15.9996 10.3955 15.9996 9.99994C15.9996 9.46951 16.2103 8.9608 16.5854 8.58573C16.9604 8.21065 17.4691 7.99994 17.9996 7.99994ZM9.98757 15.9849L10.0696 16.0159L10.0796 15.9909C10.5807 16.0358 11.0439 16.2763 11.3688 16.6604C11.6938 17.0445 11.8543 17.5412 11.8155 18.0428C11.7767 18.5444 11.5418 19.0105 11.1616 19.34C10.7815 19.6696 10.2868 19.836 9.78474 19.8033C9.28271 19.7705 8.8138 19.5412 8.47969 19.1651C8.14558 18.789 7.97318 18.2963 7.99986 17.7939C8.02655 17.2915 8.25017 16.8199 8.62225 16.4813C8.99434 16.1426 9.48489 15.9643 9.98757 15.9849ZM17.9996 27.9999C17.604 27.9999 17.2173 27.8826 16.8884 27.6629C16.5595 27.4431 16.3032 27.1308 16.1518 26.7653C16.0004 26.3999 15.9608 25.9977 16.038 25.6098C16.1152 25.2218 16.3056 24.8654 16.5854 24.5857C16.8651 24.306 17.2214 24.1155 17.6094 24.0384C17.9973 23.9612 18.3995 24.0008 18.7649 24.1522C19.1304 24.3036 19.4427 24.5599 19.6625 24.8888C19.8823 25.2177 19.9996 25.6044 19.9996 25.9999C19.9996 26.5304 19.7889 27.0391 19.4138 27.4142C19.0387 27.7892 18.53 27.9999 17.9996 27.9999ZM21.8926 25.1139C21.6935 24.23 21.1996 23.44 20.4919 22.874C19.7843 22.3081 18.9052 21.9997 17.9991 21.9997C17.0929 21.9997 16.2138 22.3081 15.5062 22.874C14.7986 23.44 14.3046 24.23 14.1056 25.1139C12.7402 24.3688 11.6184 23.246 10.8746 21.8799C11.7558 21.6808 12.5434 21.1886 13.1085 20.4838C13.6737 19.779 13.9831 18.9033 13.986 17.9999C13.9889 17.0965 13.6852 16.2188 13.1245 15.5104C12.5639 14.802 11.7795 14.3047 10.8996 14.0999C11.6461 12.7531 12.7573 11.644 14.1056 10.8999C14.3055 11.7829 14.7996 12.5717 15.507 13.1368C16.2143 13.7019 17.0927 14.0097 17.9981 14.0097C18.9034 14.0097 19.7818 13.7019 20.4892 13.1368C21.1965 12.5717 21.6907 11.7829 21.8906 10.8999C23.2378 11.6432 24.3496 12.7494 25.0996 14.0929C24.217 14.2945 23.4291 14.7902 22.8654 15.4986C22.3016 16.2071 21.9955 17.0861 21.9972 17.9914C21.999 18.8968 22.3085 19.7746 22.875 20.4809C23.4414 21.1871 24.2312 21.6798 25.1146 21.8779C24.3683 23.2397 23.2511 24.3618 21.8926 25.1139ZM25.9996 19.9829C25.604 19.9829 25.2173 19.8656 24.8884 19.6459C24.5595 19.4261 24.3032 19.1138 24.1518 18.7483C24.0004 18.3829 23.9608 17.9807 24.038 17.5928C24.1152 17.2048 24.3056 16.8484 24.5854 16.5687C24.8651 16.289 25.2214 16.0985 25.6094 16.0214C25.9973 15.9442 26.3995 15.9838 26.7649 16.1352C27.1304 16.2866 27.4427 16.5429 27.6625 16.8718C27.8823 17.2007 27.9996 17.5874 27.9996 17.9829C27.9996 18.5134 27.7889 19.0221 27.4138 19.3972C27.0387 19.7722 26.53 19.9829 25.9996 19.9829Z" fill="#CED4DA"/>
</g>
<defs>
<clipPath id="clip0_2804_367125">
<rect width="24" height="24" fill="white" transform="translate(6 6)"/>
</clipPath>
</defs>
</svg>
