<svg width="36" height="36" viewBox="0 0 36 36" fill="none" xmlns="http://www.w3.org/2000/svg">
    <g clip-path="url(#clip0_2804_367116)">
        <path
            d="M30 16.0001C30 15.9271 29.992 15.8543 29.976 15.7831L28.676 9.91508C28.4345 8.80132 27.8173 7.80447 26.9281 7.09167C26.0389 6.37887 24.9316 5.99346 23.792 6.00008H12.208C11.0691 5.99438 9.96273 6.38021 9.07433 7.09293C8.18593 7.80565 7.5694 8.802 7.328 9.91508L6.024 15.7831C6.00801 15.8543 5.99996 15.9271 6 16.0001V17.0001C5.99919 17.9737 6.35492 18.9139 7 19.6431V25.0001C7.00159 26.3257 7.52888 27.5965 8.46622 28.5339C9.40356 29.4712 10.6744 29.9985 12 30.0001H24C25.3256 29.9985 26.5964 29.4712 27.5338 28.5339C28.4711 27.5965 28.9984 26.3257 29 25.0001V19.6431C29.6451 18.9139 30.0008 17.9737 30 17.0001V16.0001ZM8 16.1091L9.28 10.3491C9.42504 9.68134 9.79502 9.08366 10.328 8.65606C10.861 8.22846 11.5247 7.99689 12.208 8.00008H13V11.0001C13 11.2653 13.1054 11.5197 13.2929 11.7072C13.4804 11.8947 13.7348 12.0001 14 12.0001C14.2652 12.0001 14.5196 11.8947 14.7071 11.7072C14.8946 11.5197 15 11.2653 15 11.0001V8.00008H21V11.0001C21 11.2653 21.1054 11.5197 21.2929 11.7072C21.4804 11.8947 21.7348 12.0001 22 12.0001C22.2652 12.0001 22.5196 11.8947 22.7071 11.7072C22.8946 11.5197 23 11.2653 23 11.0001V8.00008H23.792C24.4753 7.99689 25.139 8.22846 25.672 8.65606C26.205 9.08366 26.575 9.68134 26.72 10.3491L28 16.1091V17.0001C28 17.5305 27.7893 18.0392 27.4142 18.4143C27.0391 18.7894 26.5304 19.0001 26 19.0001H25C24.4696 19.0001 23.9609 18.7894 23.5858 18.4143C23.2107 18.0392 23 17.5305 23 17.0001C23 16.7349 22.8946 16.4805 22.7071 16.293C22.5196 16.1054 22.2652 16.0001 22 16.0001C21.7348 16.0001 21.4804 16.1054 21.2929 16.293C21.1054 16.4805 21 16.7349 21 17.0001C21 17.5305 20.7893 18.0392 20.4142 18.4143C20.0391 18.7894 19.5304 19.0001 19 19.0001H17C16.4696 19.0001 15.9609 18.7894 15.5858 18.4143C15.2107 18.0392 15 17.5305 15 17.0001C15 16.7349 14.8946 16.4805 14.7071 16.293C14.5196 16.1054 14.2652 16.0001 14 16.0001C13.7348 16.0001 13.4804 16.1054 13.2929 16.293C13.1054 16.4805 13 16.7349 13 17.0001C13 17.5305 12.7893 18.0392 12.4142 18.4143C12.0391 18.7894 11.5304 19.0001 11 19.0001H10C9.46957 19.0001 8.96086 18.7894 8.58579 18.4143C8.21072 18.0392 8 17.5305 8 17.0001V16.1091ZM24 28.0001H12C11.2044 28.0001 10.4413 27.684 9.87868 27.1214C9.31607 26.5588 9 25.7957 9 25.0001V20.8731C9.3266 20.9577 9.66263 21.0003 10 21.0001H11C11.5678 21.0004 12.1292 20.8795 12.6465 20.6455C13.1639 20.4115 13.6253 20.0697 14 19.6431C14.3747 20.0697 14.8361 20.4115 15.3535 20.6455C15.8708 20.8795 16.4322 21.0004 17 21.0001H19C19.5678 21.0004 20.1292 20.8795 20.6465 20.6455C21.1639 20.4115 21.6253 20.0697 22 19.6431C22.3747 20.0697 22.8361 20.4115 23.3535 20.6455C23.8708 20.8795 24.4322 21.0004 25 21.0001H26C26.3374 21.0003 26.6734 20.9577 27 20.8731V25.0001C27 25.7957 26.6839 26.5588 26.1213 27.1214C25.5587 27.684 24.7957 28.0001 24 28.0001Z"
            fill="#CED4DA" />
    </g>
    <defs>
        <clipPath id="clip0_2804_367116">
            <rect width="24" height="24" fill="white" transform="translate(6 6)" />
        </clipPath>
    </defs>
</svg>