<svg width="36" height="36" viewBox="0 0 36 36" fill="none" xmlns="http://www.w3.org/2000/svg">
<g clip-path="url(#clip0_2804_367132)">
<path d="M27.0003 24.1261V19.0001C27.0003 14.0371 22.9633 10.0001 18.0003 10.0001C13.0373 10.0001 9.00027 14.0371 9.00027 19.0001V24.1261C7.27627 24.5711 6.00027 26.1391 6.00027 28.0001C6.00027 29.1031 6.89727 30.0001 8.00027 30.0001H28.0003C29.1033 30.0001 30.0003 29.1031 30.0003 28.0001C30.0003 26.1391 28.7243 24.5711 27.0003 24.1261ZM18.0003 12.0001C21.8593 12.0001 25.0003 15.1411 25.0003 19.0001V24.0001H11.0003V19.0001C11.0003 15.1411 14.1413 12.0001 18.0003 12.0001ZM8.00027 28.0001C8.00027 26.8971 8.89727 26.0001 10.0003 26.0001H26.0003C27.1033 26.0001 28.0003 26.8971 28.0003 28.0001H8.00027ZM26.7973 12.2111C26.4043 11.8221 26.4013 11.1901 26.7893 10.7971L28.2893 9.28007C28.6773 8.88707 29.3103 8.88407 29.7033 9.27207C30.0963 9.66107 30.0993 10.2931 29.7113 10.6861L28.2113 12.2031C28.0163 12.4011 27.7583 12.5001 27.5003 12.5001C27.2463 12.5001 26.9923 12.4031 26.7973 12.2111ZM22.6123 8.04007L23.3893 6.54007C23.6433 6.04807 24.2483 5.85807 24.7373 6.11207C25.2273 6.36607 25.4193 6.96907 25.1653 7.46007L24.3883 8.96007C24.2103 9.30407 23.8613 9.50007 23.4993 9.50007C23.3443 9.50007 23.1873 9.46407 23.0403 9.38807C22.5503 9.13407 22.3583 8.53107 22.6123 8.04007ZM6.28927 10.6871C5.90027 10.2941 5.90427 9.66207 6.29727 9.27307C6.68927 8.88407 7.32427 8.88807 7.71127 9.28107L9.21127 10.7981C9.60027 11.1911 9.59627 11.8231 9.20327 12.2121C9.00927 12.4041 8.75427 12.5011 8.50027 12.5011C8.24227 12.5011 7.98427 12.4021 7.78927 12.2041L6.28927 10.6871ZM10.8353 7.46007C10.5813 6.97007 10.7733 6.36607 11.2633 6.11207C11.7503 5.85807 12.3563 6.04807 12.6113 6.54007L13.3883 8.04007C13.6423 8.53007 13.4503 9.13407 12.9603 9.38807C12.8143 9.46407 12.6563 9.50007 12.5013 9.50007C12.1403 9.50007 11.7903 9.30407 11.6123 8.96007L10.8353 7.46007ZM14.0003 19.0001C14.0003 16.7941 15.7943 15.0001 18.0003 15.0001C18.5533 15.0001 19.0003 15.4471 19.0003 16.0001C19.0003 16.5531 18.5533 17.0001 18.0003 17.0001C16.8973 17.0001 16.0003 17.8971 16.0003 19.0001C16.0003 19.5531 15.5533 20.0001 15.0003 20.0001C14.4473 20.0001 14.0003 19.5531 14.0003 19.0001Z" fill="#CED4DA"/>
</g>
<defs>
<clipPath id="clip0_2804_367132">
<rect width="24" height="24" fill="white" transform="translate(6 6)"/>
</clipPath>
</defs>
</svg>
