<svg width="36" height="36" viewBox="0 0 36 36" fill="none" xmlns="http://www.w3.org/2000/svg">
<g clip-path="url(#clip0_2804_367129)">
<path d="M29.686 28.272L23.74 22.326C25.152 20.601 26.001 18.398 26.001 16.001C26 10.487 21.514 6 16 6C10.486 6 6 10.487 6 16C6 21.513 10.486 26 16 26C18.398 26 20.601 25.151 22.325 23.739L28.271 29.685C28.466 29.88 28.722 29.978 28.978 29.978C29.234 29.978 29.49 29.88 29.685 29.685C30.076 29.294 30.076 28.662 29.685 28.271L29.686 28.272ZM8 16C8 11.589 11.589 8 16 8C20.411 8 24 11.589 24 16C24 20.411 20.411 24 16 24C11.589 24 8 20.412 8 16ZM15.979 9.979C14.643 9.979 13.387 10.5 12.444 11.444C11.5 12.387 10.979 13.643 10.979 14.979C10.979 16.315 11.5 17.571 12.452 18.522L14.264 20.295C14.738 20.758 15.358 20.988 15.979 20.988C16.6 20.988 17.22 20.758 17.693 20.295L19.514 18.514C20.458 17.571 20.979 16.315 20.979 14.979C20.979 13.643 20.458 12.388 19.514 11.444C18.57 10.5 17.314 9.979 15.979 9.979ZM18.108 17.092L16.295 18.865C16.121 19.035 15.837 19.035 15.663 18.865L13.858 17.099C13.292 16.533 12.979 15.78 12.979 14.978C12.979 14.176 13.291 13.423 13.859 12.857C14.424 12.29 15.177 11.978 15.979 11.978C16.781 11.978 17.534 12.29 18.1 12.857C18.666 13.423 18.979 14.176 18.979 14.978C18.979 15.78 18.666 16.534 18.108 17.092ZM16.979 14.972C16.979 15.524 16.531 15.972 15.979 15.972C15.427 15.972 14.979 15.524 14.979 14.972C14.979 14.42 15.427 13.972 15.979 13.972C16.531 13.972 16.979 14.42 16.979 14.972Z" fill="#f59f00"/>
</g>
<defs>
<clipPath id="clip0_2804_367129">
<rect width="24" height="24" fill="white" transform="translate(6 6)"/>
</clipPath>
</defs>
</svg>
