<svg width="36" height="36" viewBox="0 0 36 36" fill="none" xmlns="http://www.w3.org/2000/svg">
<g clip-path="url(#clip0_2804_367141)">
<path d="M21 12C21 8.691 18.309 6 15 6C11.691 6 9.00002 8.691 9.00002 12C9.00002 15.309 11.691 18 15 18C18.309 18 21 15.309 21 12ZM15 16C12.794 16 11 14.206 11 12C11 9.794 12.794 8 15 8C17.206 8 19 9.794 19 12C19 14.206 17.206 16 15 16ZM14.992 20.938C15.06 21.486 14.672 21.985 14.123 22.054C10.632 22.49 7.99902 25.475 7.99902 29C7.99902 29.552 7.55102 30 6.99902 30C6.44702 30 5.99902 29.552 5.99902 29C5.99902 24.469 9.38502 20.63 13.875 20.07C14.417 20.001 14.922 20.39 14.991 20.939L14.992 20.938ZM28.696 25.133L27.722 24.571C27.888 24.074 28 23.552 28 22.999C28 22.446 27.889 21.924 27.722 21.427L28.696 20.865C29.174 20.589 29.338 19.977 29.062 19.499C28.785 19.02 28.175 18.855 27.696 19.133L26.723 19.695C26.018 18.901 25.079 18.32 24 18.101V17C24 16.448 23.552 16 23 16C22.448 16 22 16.448 22 17V18.101C20.921 18.321 19.982 18.902 19.277 19.695L18.304 19.133C17.824 18.856 17.214 19.02 16.938 19.499C16.662 19.978 16.826 20.589 17.304 20.865L18.278 21.427C18.112 21.924 18 22.446 18 22.999C18 23.552 18.111 24.074 18.278 24.571L17.304 25.133C16.826 25.409 16.662 26.021 16.938 26.499C17.124 26.82 17.459 26.999 17.805 26.999C17.974 26.999 18.146 26.956 18.304 26.865L19.277 26.303C19.982 27.097 20.921 27.678 22 27.897V28.998C22 29.55 22.448 29.998 23 29.998C23.552 29.998 24 29.55 24 28.998V27.897C25.079 27.677 26.018 27.096 26.723 26.303L27.696 26.865C27.854 26.956 28.026 26.999 28.195 26.999C28.541 26.999 28.877 26.82 29.062 26.499C29.338 26.02 29.174 25.409 28.696 25.133ZM23 25.999C21.346 25.999 20 24.653 20 22.999C20 21.345 21.346 19.999 23 19.999C24.654 19.999 26 21.345 26 22.999C26 24.653 24.654 25.999 23 25.999Z" fill="#f59f00"/>
</g>
<defs>
<clipPath id="clip0_2804_367141">
<rect width="24" height="24" fill="white" transform="translate(6 6)"/>
</clipPath>
</defs>
</svg>
