<svg width="36" height="36" viewBox="0 0 36 36" fill="none" xmlns="http://www.w3.org/2000/svg">
<g clip-path="url(#clip0_2804_367121)">
<path d="M13.5 19C12.61 19 11.74 18.7361 10.9999 18.2416C10.2599 17.7472 9.68314 17.0443 9.34254 16.2221C9.00195 15.3998 8.91283 14.495 9.08647 13.6221C9.2601 12.7492 9.68868 11.9474 10.318 11.318C10.9474 10.6887 11.7492 10.2601 12.6221 10.0865C13.495 9.91284 14.3998 10.002 15.2221 10.3425C16.0443 10.6831 16.7471 11.2599 17.2416 11.9999C17.7361 12.74 18 13.61 18 14.5C17.9987 15.6931 17.5241 16.8369 16.6805 17.6805C15.8369 18.5241 14.6931 18.9987 13.5 19ZM13.5 12C13.0055 12 12.5222 12.1466 12.1111 12.4213C11.7 12.696 11.3795 13.0865 11.1903 13.5433C11.0011 14.0001 10.9516 14.5028 11.048 14.9877C11.1445 15.4727 11.3826 15.9181 11.7322 16.2678C12.0819 16.6174 12.5273 16.8555 13.0123 16.952C13.4972 17.0484 13.9999 16.9989 14.4567 16.8097C14.9135 16.6205 15.304 16.3001 15.5787 15.8889C15.8534 15.4778 16 14.9945 16 14.5C16 13.837 15.7366 13.2011 15.2678 12.7322C14.7989 12.2634 14.163 12 13.5 12ZM21 29V28.5C21 26.5109 20.2098 24.6032 18.8033 23.1967C17.3968 21.7902 15.4891 21 13.5 21C11.5109 21 9.60322 21.7902 8.1967 23.1967C6.79018 24.6032 6 26.5109 6 28.5L6 29C6 29.2652 6.10536 29.5196 6.29289 29.7071C6.48043 29.8946 6.73478 30 7 30C7.26522 30 7.51957 29.8946 7.70711 29.7071C7.89464 29.5196 8 29.2652 8 29V28.5C8 27.0413 8.57946 25.6424 9.61091 24.6109C10.6424 23.5795 12.0413 23 13.5 23C14.9587 23 16.3576 23.5795 17.3891 24.6109C18.4205 25.6424 19 27.0413 19 28.5V29C19 29.2652 19.1054 29.5196 19.2929 29.7071C19.4804 29.8946 19.7348 30 20 30C20.2652 30 20.5196 29.8946 20.7071 29.7071C20.8946 29.5196 21 29.2652 21 29ZM30 24C30 22.6487 29.6088 21.3263 28.8737 20.1924C28.1386 19.0585 27.091 18.1616 25.8574 17.61C24.6238 17.0584 23.2569 16.8756 21.9218 17.0837C20.5866 17.2919 19.3402 17.8821 18.333 18.783C18.2338 18.8702 18.1528 18.9762 18.0948 19.0949C18.0367 19.2135 18.0028 19.3425 17.9949 19.4744C17.987 19.6063 18.0053 19.7384 18.0487 19.8631C18.0922 19.9879 18.1599 20.1028 18.2481 20.2012C18.3362 20.2996 18.4429 20.3796 18.5621 20.4366C18.6813 20.4935 18.8106 20.5262 18.9426 20.5329C19.0745 20.5396 19.2064 20.5201 19.3308 20.4754C19.4551 20.4308 19.5694 20.362 19.667 20.273C20.3865 19.6296 21.2767 19.2082 22.2304 19.0597C23.1841 18.9111 24.1604 19.0417 25.0414 19.4358C25.9225 19.8299 26.6706 20.4705 27.1956 21.2804C27.7206 22.0903 28 23.0348 28 24C28 24.2652 28.1054 24.5196 28.2929 24.7071C28.4804 24.8946 28.7348 25 29 25C29.2652 25 29.5196 24.8946 29.7071 24.7071C29.8946 24.5196 30 24.2652 30 24ZM23.5 15C22.61 15 21.74 14.7361 20.9999 14.2416C20.2599 13.7471 19.6831 13.0443 19.3425 12.2221C19.0019 11.3998 18.9128 10.495 19.0865 9.6221C19.2601 8.74918 19.6887 7.94736 20.318 7.31802C20.9474 6.68869 21.7492 6.2601 22.6221 6.08647C23.495 5.91283 24.3998 6.00195 25.2221 6.34254C26.0443 6.68314 26.7471 7.25991 27.2416 7.99994C27.7361 8.73996 28 9.60999 28 10.5C27.9987 11.6931 27.5241 12.8369 26.6805 13.6805C25.8369 14.5241 24.6931 14.9987 23.5 15ZM23.5 8C23.0055 8 22.5222 8.14662 22.1111 8.42133C21.7 8.69603 21.3795 9.08648 21.1903 9.54329C21.0011 10.0001 20.9516 10.5028 21.048 10.9877C21.1445 11.4727 21.3826 11.9181 21.7322 12.2678C22.0819 12.6174 22.5273 12.8555 23.0123 12.952C23.4972 13.0484 23.9999 12.9989 24.4567 12.8097C24.9135 12.6205 25.304 12.3001 25.5787 11.8889C25.8534 11.4778 26 10.9945 26 10.5C26 9.83696 25.7366 9.20108 25.2678 8.73224C24.7989 8.26339 24.163 8 23.5 8Z" fill="#f59f00"/>
</g>
<defs>
<clipPath id="clip0_2804_367121">
<rect width="24" height="24" fill="white" transform="translate(6 6)"/>
</clipPath>
</defs>
</svg>
