<svg width="40" height="40" viewBox="0 0 40 40" fill="none" xmlns="http://www.w3.org/2000/svg">
<path d="M5.57299 4.50318C5.21403 4.88652 5 5.48096 5 6.25103V33.7488C5 34.5206 5.21403 35.1133 5.57299 35.495L5.664 35.5845L21.0387 20.1815V19.8167L5.66568 4.41199L5.57468 4.50318H5.57299Z" fill="#363A3D"/>
<path d="M22.388 19.8169V20.1816L27.5112 25.3188L27.6275 25.2529L33.6995 21.7961C35.4337 20.8082 35.4337 19.1903 33.6995 18.2058L27.6275 14.7473L27.5129 14.6814L22.388 19.8169Z" fill="#363A3D"/>
<path d="M6.25073 36.173C6.82204 36.7793 7.76748 36.8536 8.83088 36.2507L26.9576 25.9291L21.7181 20.6771L6.25073 36.173Z" fill="#363A3D"/>
<path d="M6.25073 3.82854L21.7165 19.3244L26.956 14.0725L8.83088 3.75255C8.33204 3.46884 7.85848 3.33374 7.44053 3.33374C6.9636 3.33374 6.55577 3.50599 6.25242 3.82854" fill="#363A3D"/>
</svg>
