<svg width="40" height="40" viewBox="0 0 40 40" fill="none" xmlns="http://www.w3.org/2000/svg">
<path d="M29.2389 21.0546C29.2129 16.8367 32.733 14.8049 32.8895 14.702C30.8817 11.8215 27.7787 11.4358 26.6835 11.41C24.076 11.1528 21.5467 12.9532 20.2168 12.9532C18.887 12.9532 16.827 11.4358 14.6106 11.4872C11.7684 11.5386 9.13477 13.1589 7.67454 15.6536C4.67587 20.7716 6.91836 28.3072 9.78665 32.4479C11.2208 34.4797 12.9157 36.743 15.106 36.6658C17.2703 36.5887 18.0526 35.3027 20.6601 35.3027C23.2677 35.3027 23.9978 36.6658 26.2403 36.6144C28.561 36.5887 29.9951 34.5826 31.4032 32.5251C33.072 30.2104 33.7239 27.9214 33.75 27.7929C33.6978 27.7929 29.265 26.0954 29.2129 21.0546H29.2389Z" fill="#363A3D"/>
<path d="M25.0147 8.68409C26.1621 7.26956 26.9704 5.31494 26.7357 3.33459C25.0669 3.41175 22.9548 4.46622 21.7553 5.88075C20.6862 7.11525 19.7214 9.12131 19.9822 11.0245C21.8596 11.1531 23.7892 10.0986 25.0147 8.68409Z" fill="#363A3D"/>
</svg>
